<svg width="90" height="90" viewBox="0 0 90 90" fill="none" xmlns="http://www.w3.org/2000/svg">
<rect x="6" y="2" width="4" height="65" rx="2" fill="black"/>
<rect x="8" y="2" width="74" height="5" fill="black"/>
<rect x="3" y="65" width="84" height="20" rx="2" fill="black"/>
<rect x="80" y="2" width="4" height="65" rx="2" fill="black"/>
<rect x="10" y="22" width="70" height="3" fill="black"/>
<rect x="56" y="32" width="24" height="3" fill="black"/>
<rect x="10" y="32" width="24" height="3" fill="black"/>
<rect x="36" y="24" width="2" height="18" rx="1" fill="black"/>
<rect x="52" y="24" width="2" height="18" rx="1" fill="black"/>
<rect x="37" y="40" width="16" height="2" fill="black"/>
<path d="M45.7346 44.2048C45.3386 44.6334 44.6614 44.6334 44.2654 44.2048L43.0865 42.9285C42.4948 42.2881 42.9491 41.25 43.821 41.25H46.179C47.0509 41.25 47.5052 42.2881 46.9135 42.9286L45.7346 44.2048Z" fill="black"/>
</svg>
