<svg width="90" height="90" viewBox="0 0 90 90" fill="none" xmlns="http://www.w3.org/2000/svg">
<g clip-path="url(#clip0)">
<rect x="20" y="20.6746" width="3.78248" height="72.4807" rx="1.89124" transform="rotate(-45 20 20.6746)" fill="black"/>
<rect x="22.6746" y="71.9262" width="3.78248" height="72.4807" rx="1.89124" transform="rotate(-135 22.6746 71.9262)" fill="black"/>
<rect x="41" y="21" width="12" height="49" fill="black"/>
<path d="M65.0643 81.3741C76.5464 86.2731 88.1116 74.616 83.122 63.173C78.3635 52.2603 62.9442 52.0957 57.9539 62.9044C54.6942 69.9646 57.9117 78.3223 65.0643 81.3741Z" stroke="black"/>
<path d="M66.0643 34.3741C77.5464 39.2731 89.1116 27.616 84.122 16.173C79.3635 5.26033 63.9442 5.09574 58.9539 15.9044C55.6942 22.9646 58.9117 31.3223 66.0643 34.3741Z" stroke="black"/>
<path d="M18.0643 34.3741C29.5464 39.2731 41.1116 27.616 36.122 16.173C31.3635 5.26033 15.9442 5.09574 10.9539 15.9044C7.69419 22.9646 10.9117 31.3223 18.0643 34.3741Z" stroke="black"/>
<path d="M18.0643 81.3741C29.5464 86.2731 41.1116 74.616 36.122 63.173C31.3635 52.2603 15.9442 52.0957 10.9539 62.9044C7.69419 69.9646 10.9117 78.3223 18.0643 81.3741Z" stroke="black"/>
</g>
<defs>
<clipPath id="clip0">
<rect width="90" height="90" fill="white"/>
</clipPath>
</defs>
</svg>
